<?xml version="1.0" encoding="UTF-8"?>
<svg xmlns="http://www.w3.org/2000/svg" width="11in" height="8.5in" viewBox="0 0 3300 2550">
  <defs>
    <marker id="arrow" markerWidth="16" markerHeight="16" refX="13" refY="5" orient="auto" markerUnits="strokeWidth">
      <path d="M 0 0 L 13 5 L 0 10 z" fill="#64717a"/>
    </marker>
    <filter id="shadow" x="-20%" y="-20%" width="140%" height="140%">
      <feDropShadow dx="0" dy="8" stdDeviation="8" flood-color="#18242c" flood-opacity="0.12"/>
    </filter>
  </defs>
  <style>
    .pageTitle { font: 700 52px Arial, Helvetica, sans-serif; fill: #1f2933; }
    .pageSubtitle { font: 500 25px Arial, Helvetica, sans-serif; fill: #52616b; }
    .title { font: 700 25px Arial, Helvetica, sans-serif; fill: #ffffff; }
    .subtitle { font: 600 15px Arial, Helvetica, sans-serif; fill: #ecfeff; letter-spacing: 0; }
    .field { font: 18px Arial, Helvetica, sans-serif; fill: #24343d; }
    .edgeLabel { font: 700 18px Arial, Helvetica, sans-serif; fill: #34444d; }
    .note { font: 20px Arial, Helvetica, sans-serif; fill: #33444e; }
    g[id] { filter: none; }
  </style>
  <rect width="3300" height="2550" fill="#f7f9fb"/>
  <rect x="50" y="50" width="3200" height="2450" rx="34" fill="#ffffff" stroke="#d7e0e7" stroke-width="2"/>
  <text x="1650" y="112" class="pageTitle" text-anchor="middle">Figure 2B: Governance and Support Entity Relationships</text>
  <text x="1650" y="154" class="pageSubtitle" text-anchor="middle">University Health Center System - audit, availability, slot-lock, and admin-notification collections</text>
  <g id="edges">

    <path d="M 620 360 C 690 360, 760 360, 840 360" fill="none" stroke="#6b46c1" stroke-width="3" marker-end="url(#arrow)"/>

    <g>
      <rect x="617" y="302" width="236" height="36" rx="16" fill="#ffffff" stroke="#6b46c1" stroke-width="2"/>
      <text x="735" y="327" class="edgeLabel" text-anchor="middle">actorUid / targetUid</text>
    </g>

    <path d="M 620 420 C 930 545, 1300 505, 1605 385" fill="none" stroke="#805ad5" stroke-width="3" marker-end="url(#arrow)"/>

    <g>
      <rect x="1012" y="482" width="236" height="36" rx="16" fill="#ffffff" stroke="#805ad5" stroke-width="2"/>
      <text x="1130" y="507" class="edgeLabel" text-anchor="middle">adminUid</text>
    </g>

    <path d="M 2205 365 C 2285 365, 2385 300, 2470 300" fill="none" stroke="#805ad5" stroke-width="3" marker-end="url(#arrow)"/>

    <g>
      <rect x="2222" y="294" width="236" height="36" rx="16" fill="#ffffff" stroke="#805ad5" stroke-width="2"/>
      <text x="2340" y="319" class="edgeLabel" text-anchor="middle">cooldown</text>
    </g>

    <path d="M 2205 500 C 2325 625, 2375 850, 2470 930" fill="none" stroke="#805ad5" stroke-width="3" marker-end="url(#arrow)"/>

    <g>
      <rect x="2257" y="682" width="236" height="36" rx="16" fill="#ffffff" stroke="#805ad5" stroke-width="2"/>
      <text x="2375" y="707" class="edgeLabel" text-anchor="middle">creates N notifications</text>
    </g>

    <path d="M 620 960 C 690 960, 760 1015, 840 1015" fill="none" stroke="#2f855a" stroke-width="3" marker-end="url(#arrow)"/>

    <g>
      <rect x="617" y="912" width="236" height="36" rx="16" fill="#ffffff" stroke="#2f855a" stroke-width="2"/>
      <text x="735" y="937" class="edgeLabel" text-anchor="middle">doctorId</text>
    </g>

    <path d="M 620 460 C 710 675, 720 1050, 840 1190" fill="none" stroke="#2f855a" stroke-width="3" stroke-dasharray="12 9" marker-end="url(#arrow)"/>

    <g>
      <rect x="627" y="777" width="236" height="36" rx="16" fill="#ffffff" stroke="#2f855a" stroke-width="2"/>
      <text x="745" y="802" class="edgeLabel" text-anchor="middle">reviewedBy</text>
    </g>

    <path d="M 1455 1040 C 1520 1040, 1595 1010, 1670 1010" fill="none" stroke="#2f855a" stroke-width="3" marker-end="url(#arrow)"/>

    <g>
      <rect x="1444" y="967" width="236" height="36" rx="16" fill="#ffffff" stroke="#2f855a" stroke-width="2"/>
      <text x="1562" y="992" class="edgeLabel" text-anchor="middle">approved usage</text>
    </g>

    <path d="M 620 980 C 720 1150, 730 1480, 840 1605" fill="none" stroke="#c05621" stroke-width="3" marker-end="url(#arrow)"/>

    <g>
      <rect x="607" y="1307" width="236" height="36" rx="16" fill="#ffffff" stroke="#c05621" stroke-width="2"/>
      <text x="725" y="1332" class="edgeLabel" text-anchor="middle">doctorId</text>
    </g>

    <path d="M 620 1490 C 690 1490, 760 1705, 840 1705" fill="none" stroke="#c05621" stroke-width="3" marker-end="url(#arrow)"/>

    <g>
      <rect x="617" y="1567" width="236" height="36" rx="16" fill="#ffffff" stroke="#c05621" stroke-width="2"/>
      <text x="735" y="1592" class="edgeLabel" text-anchor="middle">appointmentId</text>
    </g>
  </g>
  <g id="entities">

  <g id="admin_users">
    <rect x="110" y="210" width="510" height="340" rx="18" fill="#ffffff" stroke="#25343b" stroke-width="3"/>
    <rect x="110" y="210" width="510" height="72" rx="18" fill="#1f6f78" stroke="#25343b" stroke-width="3"/>
    <path d="M 110 262 L 110 282 L 620 282 L 620 262" fill="#1f6f78" stroke="none"/>
    <text x="365" y="241" class="title" text-anchor="middle">users</text>
    <text x="365" y="266" class="subtitle" text-anchor="middle">admin and super admin reference</text>
<rect x="110" y="282" width="510" height="34" fill="#d7f0f2" stroke="#c7d1d8" stroke-width="1"/>
<text x="132" y="305" class="field" font-weight="700">userId / uid (PK)</text>
<rect x="110" y="316" width="510" height="34" fill="#ffffff" stroke="#c7d1d8" stroke-width="1"/>
<text x="132" y="339" class="field" font-weight="500">email</text>
<rect x="110" y="350" width="510" height="34" fill="#ffffff" stroke="#c7d1d8" stroke-width="1"/>
<text x="132" y="373" class="field" font-weight="500">fullName</text>
<rect x="110" y="384" width="510" height="34" fill="#ffffff" stroke="#c7d1d8" stroke-width="1"/>
<text x="132" y="407" class="field" font-weight="500">role</text>
<rect x="110" y="418" width="510" height="34" fill="#ffffff" stroke="#c7d1d8" stroke-width="1"/>
<text x="132" y="441" class="field" font-weight="500">isActive</text>
<rect x="110" y="452" width="510" height="34" fill="#ffffff" stroke="#c7d1d8" stroke-width="1"/>
<text x="132" y="475" class="field" font-weight="500">adminPermissions</text>
  </g>

  <g id="doctor_ref">
    <rect x="110" y="790" width="510" height="310" rx="18" fill="#ffffff" stroke="#25343b" stroke-width="3"/>
    <rect x="110" y="790" width="510" height="72" rx="18" fill="#2f855a" stroke="#25343b" stroke-width="3"/>
    <path d="M 110 842 L 110 862 L 620 862 L 620 842" fill="#2f855a" stroke="none"/>
    <text x="365" y="821" class="title" text-anchor="middle">doctors</text>
    <text x="365" y="846" class="subtitle" text-anchor="middle">doctor reference</text>
<rect x="110" y="862" width="510" height="34" fill="#ddf3e5" stroke="#c7d1d8" stroke-width="1"/>
<text x="132" y="885" class="field" font-weight="700">doctorId (PK)</text>
<rect x="110" y="896" width="510" height="34" fill="#ddf3e5" stroke="#c7d1d8" stroke-width="1"/>
<text x="132" y="919" class="field" font-weight="700">userId (FK)</text>
<rect x="110" y="930" width="510" height="34" fill="#ffffff" stroke="#c7d1d8" stroke-width="1"/>
<text x="132" y="953" class="field" font-weight="500">doctorName</text>
<rect x="110" y="964" width="510" height="34" fill="#ffffff" stroke="#c7d1d8" stroke-width="1"/>
<text x="132" y="987" class="field" font-weight="500">isAvailable</text>
  </g>

  <g id="appointment_ref">
    <rect x="110" y="1320" width="510" height="345" rx="18" fill="#ffffff" stroke="#25343b" stroke-width="3"/>
    <rect x="110" y="1320" width="510" height="72" rx="18" fill="#c05621" stroke="#25343b" stroke-width="3"/>
    <path d="M 110 1372 L 110 1392 L 620 1392 L 620 1372" fill="#c05621" stroke="none"/>
    <text x="365" y="1351" class="title" text-anchor="middle">appointments</text>
    <text x="365" y="1376" class="subtitle" text-anchor="middle">booking reference</text>
<rect x="110" y="1392" width="510" height="34" fill="#ffeadb" stroke="#c7d1d8" stroke-width="1"/>
<text x="132" y="1415" class="field" font-weight="700">appointmentId (PK)</text>
<rect x="110" y="1426" width="510" height="34" fill="#ffeadb" stroke="#c7d1d8" stroke-width="1"/>
<text x="132" y="1449" class="field" font-weight="700">doctorId (FK)</text>
<rect x="110" y="1460" width="510" height="34" fill="#ffffff" stroke="#c7d1d8" stroke-width="1"/>
<text x="132" y="1483" class="field" font-weight="500">appointmentDate</text>
<rect x="110" y="1494" width="510" height="34" fill="#ffffff" stroke="#c7d1d8" stroke-width="1"/>
<text x="132" y="1517" class="field" font-weight="500">timeSlot</text>
<rect x="110" y="1528" width="510" height="34" fill="#ffffff" stroke="#c7d1d8" stroke-width="1"/>
<text x="132" y="1551" class="field" font-weight="500">status</text>
  </g>

  <g id="audit">
    <rect x="840" y="190" width="600" height="466" rx="18" fill="#ffffff" stroke="#25343b" stroke-width="3"/>
    <rect x="840" y="190" width="600" height="72" rx="18" fill="#6b46c1" stroke="#25343b" stroke-width="3"/>
    <path d="M 840 242 L 840 262 L 1440 262 L 1440 242" fill="#6b46c1" stroke="none"/>
    <text x="1140" y="221" class="title" text-anchor="middle">admin_audit_logs</text>
    <text x="1140" y="246" class="subtitle" text-anchor="middle">governance event history</text>
<rect x="840" y="262" width="600" height="34" fill="#efe8ff" stroke="#c7d1d8" stroke-width="1"/>
<text x="862" y="285" class="field" font-weight="700">logId (PK)</text>
<rect x="840" y="296" width="600" height="34" fill="#efe8ff" stroke="#c7d1d8" stroke-width="1"/>
<text x="862" y="319" class="field" font-weight="700">actorUid (FK)</text>
<rect x="840" y="330" width="600" height="34" fill="#ffffff" stroke="#c7d1d8" stroke-width="1"/>
<text x="862" y="353" class="field" font-weight="500">actorRole</text>
<rect x="840" y="364" width="600" height="34" fill="#ffffff" stroke="#c7d1d8" stroke-width="1"/>
<text x="862" y="387" class="field" font-weight="500">actorName</text>
<rect x="840" y="398" width="600" height="34" fill="#efe8ff" stroke="#c7d1d8" stroke-width="1"/>
<text x="862" y="421" class="field" font-weight="700">targetUid (FK)</text>
<rect x="840" y="432" width="600" height="34" fill="#ffffff" stroke="#c7d1d8" stroke-width="1"/>
<text x="862" y="455" class="field" font-weight="500">targetName</text>
<rect x="840" y="466" width="600" height="34" fill="#ffffff" stroke="#c7d1d8" stroke-width="1"/>
<text x="862" y="489" class="field" font-weight="500">action</text>
<rect x="840" y="500" width="600" height="34" fill="#ffffff" stroke="#c7d1d8" stroke-width="1"/>
<text x="862" y="523" class="field" font-weight="500">before</text>
<rect x="840" y="534" width="600" height="34" fill="#ffffff" stroke="#c7d1d8" stroke-width="1"/>
<text x="862" y="557" class="field" font-weight="500">after</text>
<rect x="840" y="568" width="600" height="34" fill="#ffffff" stroke="#c7d1d8" stroke-width="1"/>
<text x="862" y="591" class="field" font-weight="500">metadata</text>
<rect x="840" y="602" width="600" height="34" fill="#ffffff" stroke="#c7d1d8" stroke-width="1"/>
<text x="862" y="625" class="field" font-weight="500">createdAt</text>
  </g>

  <g id="sends">
    <rect x="1605" y="190" width="600" height="364" rx="18" fill="#ffffff" stroke="#25343b" stroke-width="3"/>
    <rect x="1605" y="190" width="600" height="72" rx="18" fill="#805ad5" stroke="#25343b" stroke-width="3"/>
    <path d="M 1605 242 L 1605 262 L 2205 262 L 2205 242" fill="#805ad5" stroke="none"/>
    <text x="1905" y="221" class="title" text-anchor="middle">admin_notification_sends</text>
    <text x="1905" y="246" class="subtitle" text-anchor="middle">admin send audit records</text>
<rect x="1605" y="262" width="600" height="34" fill="#efe8ff" stroke="#c7d1d8" stroke-width="1"/>
<text x="1627" y="285" class="field" font-weight="700">sendId (PK)</text>
<rect x="1605" y="296" width="600" height="34" fill="#efe8ff" stroke="#c7d1d8" stroke-width="1"/>
<text x="1627" y="319" class="field" font-weight="700">adminUid (FK)</text>
<rect x="1605" y="330" width="600" height="34" fill="#ffffff" stroke="#c7d1d8" stroke-width="1"/>
<text x="1627" y="353" class="field" font-weight="500">idempotencyKey</text>
<rect x="1605" y="364" width="600" height="34" fill="#ffffff" stroke="#c7d1d8" stroke-width="1"/>
<text x="1627" y="387" class="field" font-weight="500">recipientType</text>
<rect x="1605" y="398" width="600" height="34" fill="#ffffff" stroke="#c7d1d8" stroke-width="1"/>
<text x="1627" y="421" class="field" font-weight="500">recipientCount</text>
<rect x="1605" y="432" width="600" height="34" fill="#ffffff" stroke="#c7d1d8" stroke-width="1"/>
<text x="1627" y="455" class="field" font-weight="500">title</text>
<rect x="1605" y="466" width="600" height="34" fill="#ffffff" stroke="#c7d1d8" stroke-width="1"/>
<text x="1627" y="489" class="field" font-weight="500">body</text>
<rect x="1605" y="500" width="600" height="34" fill="#ffffff" stroke="#c7d1d8" stroke-width="1"/>
<text x="1627" y="523" class="field" font-weight="500">createdAt</text>
  </g>

  <g id="rate_limits">
    <rect x="2470" y="190" width="550" height="160" rx="18" fill="#ffffff" stroke="#25343b" stroke-width="3"/>
    <rect x="2470" y="190" width="550" height="72" rx="18" fill="#805ad5" stroke="#25343b" stroke-width="3"/>
    <path d="M 2470 242 L 2470 262 L 3020 262 L 3020 242" fill="#805ad5" stroke="none"/>
    <text x="2745" y="221" class="title" text-anchor="middle">admin_notification_rate_limits</text>
    <text x="2745" y="246" class="subtitle" text-anchor="middle">send cooldown state</text>
<rect x="2470" y="262" width="550" height="34" fill="#ffffff" stroke="#c7d1d8" stroke-width="1"/>
<text x="2492" y="285" class="field" font-weight="500">adminUid (PK/FK)</text>
<rect x="2470" y="296" width="550" height="34" fill="#ffffff" stroke="#c7d1d8" stroke-width="1"/>
<text x="2492" y="319" class="field" font-weight="500">lastSendAt</text>
  </g>

  <g id="availability_requests">
    <rect x="840" y="880" width="615" height="364" rx="18" fill="#ffffff" stroke="#25343b" stroke-width="3"/>
    <rect x="840" y="880" width="615" height="72" rx="18" fill="#2f855a" stroke="#25343b" stroke-width="3"/>
    <path d="M 840 932 L 840 952 L 1455 952 L 1455 932" fill="#2f855a" stroke="none"/>
    <text x="1147.5" y="911" class="title" text-anchor="middle">doctor_availability_requests</text>
    <text x="1147.5" y="936" class="subtitle" text-anchor="middle">unavailable request review</text>
<rect x="840" y="952" width="615" height="34" fill="#ddf3e5" stroke="#c7d1d8" stroke-width="1"/>
<text x="862" y="975" class="field" font-weight="700">requestId (PK)</text>
<rect x="840" y="986" width="615" height="34" fill="#ddf3e5" stroke="#c7d1d8" stroke-width="1"/>
<text x="862" y="1009" class="field" font-weight="700">doctorId (FK)</text>
<rect x="840" y="1020" width="615" height="34" fill="#ffffff" stroke="#c7d1d8" stroke-width="1"/>
<text x="862" y="1043" class="field" font-weight="500">doctorName</text>
<rect x="840" y="1054" width="615" height="34" fill="#ffffff" stroke="#c7d1d8" stroke-width="1"/>
<text x="862" y="1077" class="field" font-weight="500">status</text>
<rect x="840" y="1088" width="615" height="34" fill="#ffffff" stroke="#c7d1d8" stroke-width="1"/>
<text x="862" y="1111" class="field" font-weight="500">note</text>
<rect x="840" y="1122" width="615" height="34" fill="#ddf3e5" stroke="#c7d1d8" stroke-width="1"/>
<text x="862" y="1145" class="field" font-weight="700">reviewedBy (FK)</text>
<rect x="840" y="1156" width="615" height="34" fill="#ffffff" stroke="#c7d1d8" stroke-width="1"/>
<text x="862" y="1179" class="field" font-weight="500">reviewedAt</text>
<rect x="840" y="1190" width="615" height="34" fill="#ffffff" stroke="#c7d1d8" stroke-width="1"/>
<text x="862" y="1213" class="field" font-weight="500">createdAt</text>
  </g>

  <g id="availability_usage">
    <rect x="1670" y="880" width="535" height="228" rx="18" fill="#ffffff" stroke="#25343b" stroke-width="3"/>
    <rect x="1670" y="880" width="535" height="72" rx="18" fill="#2f855a" stroke="#25343b" stroke-width="3"/>
    <path d="M 1670 932 L 1670 952 L 2205 952 L 2205 932" fill="#2f855a" stroke="none"/>
    <text x="1937.5" y="911" class="title" text-anchor="middle">doctor_availability_usage</text>
    <text x="1937.5" y="936" class="subtitle" text-anchor="middle">monthly usage counter</text>
<rect x="1670" y="952" width="535" height="34" fill="#ddf3e5" stroke="#c7d1d8" stroke-width="1"/>
<text x="1692" y="975" class="field" font-weight="700">usageId (PK)</text>
<rect x="1670" y="986" width="535" height="34" fill="#ddf3e5" stroke="#c7d1d8" stroke-width="1"/>
<text x="1692" y="1009" class="field" font-weight="700">doctorId (FK)</text>
<rect x="1670" y="1020" width="535" height="34" fill="#ffffff" stroke="#c7d1d8" stroke-width="1"/>
<text x="1692" y="1043" class="field" font-weight="500">month</text>
<rect x="1670" y="1054" width="535" height="34" fill="#ffffff" stroke="#c7d1d8" stroke-width="1"/>
<text x="1692" y="1077" class="field" font-weight="500">approvedCount</text>
  </g>

  <g id="slot_locks">
    <rect x="840" y="1510" width="615" height="296" rx="18" fill="#ffffff" stroke="#25343b" stroke-width="3"/>
    <rect x="840" y="1510" width="615" height="72" rx="18" fill="#c05621" stroke="#25343b" stroke-width="3"/>
    <path d="M 840 1562 L 840 1582 L 1455 1582 L 1455 1562" fill="#c05621" stroke="none"/>
    <text x="1147.5" y="1541" class="title" text-anchor="middle">appointment_slot_locks</text>
    <text x="1147.5" y="1566" class="subtitle" text-anchor="middle">double-booking prevention</text>
<rect x="840" y="1582" width="615" height="34" fill="#ffeadb" stroke="#c7d1d8" stroke-width="1"/>
<text x="862" y="1605" class="field" font-weight="700">slotLockId (PK)</text>
<rect x="840" y="1616" width="615" height="34" fill="#ffeadb" stroke="#c7d1d8" stroke-width="1"/>
<text x="862" y="1639" class="field" font-weight="700">doctorId (FK)</text>
<rect x="840" y="1650" width="615" height="34" fill="#ffffff" stroke="#c7d1d8" stroke-width="1"/>
<text x="862" y="1673" class="field" font-weight="500">date</text>
<rect x="840" y="1684" width="615" height="34" fill="#ffffff" stroke="#c7d1d8" stroke-width="1"/>
<text x="862" y="1707" class="field" font-weight="500">timeSlot</text>
<rect x="840" y="1718" width="615" height="34" fill="#ffeadb" stroke="#c7d1d8" stroke-width="1"/>
<text x="862" y="1741" class="field" font-weight="700">appointmentId (FK)</text>
<rect x="840" y="1752" width="615" height="34" fill="#ffffff" stroke="#c7d1d8" stroke-width="1"/>
<text x="862" y="1775" class="field" font-weight="500">lockedAt</text>
  </g>

  <g id="notifications_ref">
    <rect x="2470" y="790" width="550" height="345" rx="18" fill="#ffffff" stroke="#25343b" stroke-width="3"/>
    <rect x="2470" y="790" width="550" height="72" rx="18" fill="#805ad5" stroke="#25343b" stroke-width="3"/>
    <path d="M 2470 842 L 2470 862 L 3020 862 L 3020 842" fill="#805ad5" stroke="none"/>
    <text x="2745" y="821" class="title" text-anchor="middle">notifications</text>
    <text x="2745" y="846" class="subtitle" text-anchor="middle">records created for recipients</text>
<rect x="2470" y="862" width="550" height="34" fill="#efe8ff" stroke="#c7d1d8" stroke-width="1"/>
<text x="2492" y="885" class="field" font-weight="700">notificationId (PK)</text>
<rect x="2470" y="896" width="550" height="34" fill="#efe8ff" stroke="#c7d1d8" stroke-width="1"/>
<text x="2492" y="919" class="field" font-weight="700">userId (FK)</text>
<rect x="2470" y="930" width="550" height="34" fill="#ffffff" stroke="#c7d1d8" stroke-width="1"/>
<text x="2492" y="953" class="field" font-weight="500">title</text>
<rect x="2470" y="964" width="550" height="34" fill="#ffffff" stroke="#c7d1d8" stroke-width="1"/>
<text x="2492" y="987" class="field" font-weight="500">body</text>
<rect x="2470" y="998" width="550" height="34" fill="#ffffff" stroke="#c7d1d8" stroke-width="1"/>
<text x="2492" y="1021" class="field" font-weight="500">type</text>
<rect x="2470" y="1032" width="550" height="34" fill="#ffffff" stroke="#c7d1d8" stroke-width="1"/>
<text x="2492" y="1055" class="field" font-weight="500">createdAt</text>
<rect x="2470" y="1066" width="550" height="34" fill="#ffffff" stroke="#c7d1d8" stroke-width="1"/>
<text x="2492" y="1089" class="field" font-weight="500">isDelivered</text>
  </g>
  </g>

  <g>
    <rect x="110" y="2050" width="1420" height="98" rx="18" fill="#f4fbfa" stroke="#9aa8b2" stroke-width="2"/>
<text x="134" y="2092" class="note">Reference entities repeat only the key fields needed to show relationships.</text>
<text x="134" y="2120" class="note">Full users, doctors, appointments, and notifications fields are shown in Figure 2A.</text>
  </g>

  <g>
    <rect x="1660" y="2050" width="1360" height="98" rx="18" fill="#fff8ed" stroke="#9aa8b2" stroke-width="2"/>
<text x="1684" y="2092" class="note">Support collections protect administrative actions, prevent double booking,</text>
<text x="1684" y="2120" class="note">limit notification sending, and track doctor unavailable-request usage.</text>
  </g>
</svg>